<svg version="1.0" viewBox="0 0 48 48" xmlns="http://www.w3.org/2000/svg" xmlns:xlink="http://www.w3.org/1999/xlink">
<defs>
<linearGradient id="a">
<stop stop-color="#fffef5" stop-opacity=".94118" offset="0"/>
<stop stop-color="#fce94f" stop-opacity="0" offset="1"/>
</linearGradient>
<radialGradient id="d" cx="336.74" cy="-72.42" r="297.21" gradientTransform="matrix(.13651 -2.3961e-18 -4.4849e-5 .071377 -23.398 12.31)" gradientUnits="userSpaceOnUse">
<stop stop-color="#fdf188" offset="0"/>
<stop stop-color="#d3bc00" offset="1"/>
</radialGradient>
<radialGradient id="c" cx="420.88" cy="685.99" r="235.89" gradientTransform="matrix(.16353 -.010658 .010781 .16542 -46.182 -65.655)" gradientUnits="userSpaceOnUse" xlink:href="#a"/>
<radialGradient id="b" cx="500.98" cy="286.47" r="40.975" gradientTransform="matrix(.2248 .010172 -.0097595 .21567 -73.88 -54.898)" gradientUnits="userSpaceOnUse" xlink:href="#a"/>
<radialGradient id="j" cx="293.82" cy="243.07" r="48.783" gradientTransform="matrix(.27296 -.071724 .056162 .21374 -78.547 -24.305)" gradientUnits="userSpaceOnUse" xlink:href="#a"/>
<radialGradient id="i" cx="424.99" cy="270.68" r="38.452" gradientTransform="matrix(.081744 .01025 -.04336 .34579 6.1234 -84.504)" gradientUnits="userSpaceOnUse">
<stop stop-color="#c4a000" offset="0"/>
<stop stop-color="#c4a000" stop-opacity="0" offset="1"/>
</radialGradient>
<radialGradient id="h" cx="340.36" cy="409.84" r="103.26" gradientTransform="matrix(.10563 -.04514 .066926 .15661 -46.016 -24.355)" gradientUnits="userSpaceOnUse" xlink:href="#a"/>
<radialGradient id="g" cx="29.899" cy="45.674" r="30.366" gradientTransform="matrix(1 0 2.7022e-19 .41538 -2.2831e-16 26.701)" gradientUnits="userSpaceOnUse">
<stop offset="0"/>
<stop offset=".5"/>
<stop stop-opacity="0" offset="1"/>
</radialGradient>
<radialGradient id="f" cx="131.24" cy="424.16" r="35.935" gradientTransform="matrix(.10195 -.042723 .096213 .2296 -48.672 -64.241)" gradientUnits="userSpaceOnUse" xlink:href="#a"/>
<radialGradient id="e" cx="15.492" cy="10.943" r="18.37" gradientTransform="matrix(1.4027 1.1764e-16 -9.3568e-17 1.1156 -6.238 .053308)" gradientUnits="userSpaceOnUse">
<stop stop-color="#fff" offset="0"/>
<stop stop-color="#fff" stop-opacity="0" offset="1"/>
</radialGradient>
</defs>
<g>
<path transform="matrix(.74253 0 -.05813 1.4286 4.5005 -36.683)" d="m60.265 45.674a30.366 12.614 0 1 1-60.732 0 30.366 12.614 0 1 1 60.732 0z" fill="url(#g)"/>
<path d="m23.153 1.1802c-2.7725 0.038891-5.2869 0.71069-7.5185 1.8394-1.0928 2.1518-4.6906 4.7097-6.1653 4.9819-2.8998 3.4593-4.7802 7.8035-5.4935 11.98-4.375e-4 0.002563 4.366e-4 0.005161 0 0.007723-1.1864 1.5497-1.69 3.3966-1.3773 5.5326 1.1212 7.6593 3.2822 14.888 8.1851 16.556 7.1544 2.4339 21.872 1.7858 25.13 0.45826 7.139-2.9093 7.7715-9.2851 8.8914-16.78 0.30555-2.0448-0.14484-3.8412-1.2306-5.3729-0.008956-0.055602-0.018487-0.11147-0.028319-0.16734-0.78125-4.4389-2.8474-8.889-5.9426-12.369-2.0938-0.21743-6.1396-3.5764-7.1194-5.2237-2.1527-0.92098-4.5218-1.4428-7.0755-1.4428-0.085321 0-0.17004-0.0011896-0.25487 0z" fill="url(#d)" stroke="#c4a000"/>
<g fill-rule="evenodd">
<path d="m43.63 22.793c-4.5962 16.44-33.191 18.01-39.846 0.24929-0.042208 16.324 6.3201 21.042 24.407 20.205 3.062-0.14069 10.01 0.042867 14.614-9.1368 2.2384-11.51 0.82525-11.318 0.82525-11.318z" fill="url(#c)" opacity=".66667"/>
<path d="m34.692 7.6783 2.5009 1.1254s-1.3104 10.123-6.669 16.485c1.7717-6.4558 4.189-17.61 4.1681-17.61z" fill="url(#b)"/>
<path d="m15.872 4.1562c1.5005 9.0657 6.5023 19.486 6.0021 20.007-4.5849-6.9816-6.5023-12.921-8.0028-17.923 0-0.083364 2.0007-2.0632 2.0007-2.0841z" fill="url(#j)"/>
<path d="m30.211 3.8228c-4.0848 16.506-4.2515 19.257-4.2515 19.257s6.3356-16.756 6.3356-17.173c0-8e-7 -1.5839-1.5005-2.0841-2.0841z" fill="url(#i)"/>
</g>
</g>
<flowRoot style="line-height:0.01%" xml:space="preserve"><flowRegion><rect x="86.788" y="412.8" width="40.056" height="16.022"/></flowRegion><flowPara font-size="12px" style="line-height:1.25"> </flowPara></flowRoot>
<g fill-rule="evenodd">
<path d="m16.182 34.476-0.044674-9.5697h14.494l1.6426-1.2635h-16.931l0.044674 10.641 0.79513 0.19271z" fill="url(#h)"/>
<path d="m31.043 24.817 0.081681 9.8046 0.68614-0.21474 0.011978-10.853-0.7798 1.2635z" fill="#958401"/>
<path d="m4.2551 24.106s2.3167 8.1157 10.221 8.766c1.1056 2.4904-1.135 4.1246-1.135 4.1246l-3.6095-0.25106s-6.2388-7.9929-6.4882-9.9009c-0.24943-1.9079 0.16328-3.4078 0.16328-3.4078l0.84847 0.6691z" fill="url(#f)"/>
</g>
<path d="m23.184 2.389c-2.6139 0.036666-4.9845 0.67003-7.0884 1.7342-1.0302 2.0287-4.4222 4.4403-5.8126 4.6969-2.7339 3.2614-4.5068 7.3571-5.1792 11.295-4.124e-4 0.002417 4.116e-4 0.004866 0 0.007282-1.1185 1.4611-1.8585 3.2465-1.5637 5.2602 1.057 7.2211 2.9276 13.71 7.328 15.639 5.9231 2.5976 21.54 1.7859 24.611 0.5343 6.7306-2.7429 7.0617-8.9307 8.1176-15.997 0.28807-1.9279-0.13655-3.6215-1.1602-5.0656-0.008444-0.052421-0.017429-0.1051-0.026699-0.15777-0.73656-4.1849-2.6845-8.3805-5.6027-11.662-1.974-0.20499-5.7884-3.3718-6.7121-4.9249-2.0295-0.86829-4.2631-1.3603-6.6707-1.3603-0.08044 0-0.16031-0.0011215-0.24029 0z" fill="none" opacity=".74444" stroke="#fff"/>
<path d="m22.594 2.7812c-2.3296 0.11657-4.441 0.72504-6.3438 1.6875-1.0107 1.9903-4.3547 4.3732-5.7188 4.625-2.6821 3.1996-4.4028 7.1994-5.0625 11.062-4.046e-4 0.00237 4.038e-4 0.02888 0 0.03125-1.0973 1.4334-1.458 3.5911-1.458 3.5911 4.6853 3.6051 7.6416 0.21389 14.319-2.0172 12.599 1.9231 18.748-0.99594 22.514-5.6677 0.006859-0.008509-0.003456-0.020881 0-0.03125-0.99118-2.5828-2.4323-5.0461-4.2812-7.125-1.9366-0.20111-5.6875-3.2888-6.5938-4.8125-1.9911-0.85185-4.1692-1.3438-6.5312-1.3438-0.078916 1e-7 -0.17153-0.0011003-0.25 0-0.20035 0.0028103-0.39633-0.0098787-0.59375 0z" fill="url(#e)" opacity=".59444"/>
</svg>
